<svg width="269" height="121" fill="none" xmlns="http://www.w3.org/2000/svg"><g clip-path="url(#a)" fill="#fff" stroke="#fff" stroke-width=".5"><path d="M268.828 50.933c-1.027-5.299-6.628-9.493-16.242-12.38V.005h-5.403v34.038L236.4.006h-7.418v34.65a213.93 213.93 0 0 0-4.356-.286c-4.654-.25-9.544-.356-14.64-.33V27.38h11.92v-5.533h-11.92V5.604h14.64V.005h-20.668v34.12c-1.486.036-2.982.087-4.498.142V12.563c0-3.955-.952-7.066-2.825-9.254C194.746 1.115 191.871 0 188.079 0h-11.73v35.876c-1.49.148-2.991.305-4.497.468V12.563c0-3.955-.952-7.066-2.825-9.254C167.138 1.115 164.263 0 160.471 0h-11.73v39.429c-1.657.26-3.318.53-4.98.81V.004h-6.034v41.282c-1.657.295-3.318.606-4.985.916V.005h-6.039v22.199h-11.397V.005h-6.033v47.156c-12.615 2.957-24.717 6.292-36.008 9.9-.197.062-.398.128-.594.194a421.393 421.393 0 0 0-5.44 1.787 383.825 383.825 0 0 0-5.489 1.898l-.559.199c.07.188.141.371.202.565.453 1.476.684 3.146.684 5.003V92.22c0 3.761-.936 6.75-2.785 8.892-1.838 2.128-4.577 3.212-8.143 3.212-3.566 0-6.235-1.079-8.073-3.212-1.848-2.137-2.785-5.13-2.785-8.892V69.44c-.196.087-.398.173-.594.265a236.48 236.48 0 0 0-4.764 2.199c-5.993 2.85-11.261 5.696-15.763 8.505-.202.128-.398.25-.595.377a94.6 94.6 0 0 0-4.774 3.217c-.201.143-.398.29-.594.433C3.575 91.497-.963 98.23.17 104.09c1.793 9.249 17.49 15.134 44.203 16.569 4.22.229 8.626.341 13.214.341 24.31 0 53.429-3.156 83.57-9.117a526.373 526.373 0 0 0 32.372-7.452c.751-.198 1.496-.397 2.241-.6.826-.224 1.642-.443 2.463-.672.196-.056.398-.107.594-.163a440.09 440.09 0 0 0 12.097-3.523l.594-.183a451.62 451.62 0 0 0 4.845-1.527c.196-.066.398-.127.594-.193 1.657-.535 3.299-1.08 4.921-1.624.191-.066.377-.127.569-.194a10.404 10.404 0 0 1-.106-.595 19.386 19.386 0 0 1-.222-2.942V66.702c0-3.761.927-6.754 2.75-8.892 1.813-2.128 4.543-3.207 8.108-3.207 3.566 0 6.305 1.08 8.144 3.207 1.848 2.143 2.785 5.136 2.785 8.892V87.66c.196-.082.398-.163.594-.25a252.997 252.997 0 0 0 4.497-1.954l.594-.265a213.798 213.798 0 0 0 4.286-1.98c.066-.03.136-.061.202-.097.131-.06.256-.127.387-.188a199.084 199.084 0 0 0 4.538-2.24c.181-.091.358-.183.539-.275a175.721 175.721 0 0 0 3.812-2.02c.176-.097.358-.194.529-.29a147.366 147.366 0 0 0 3.304-1.884c.196-.117.398-.234.594-.351 1.481-.88 2.886-1.761 4.215-2.637.202-.132.398-.265.594-.397 11.81-7.88 17.491-15.423 16.237-21.898ZM229.576.6h6.391l11.231 35.448.579-.092V.601h4.215v37.78c-2.755-.8-5.827-1.497-9.211-2.077l-8.34-26.648-.579.092v39.587h-4.286V.6Zm12.55 35.59c-2.407-.402-4.96-.748-7.665-1.043V11.692l7.665 24.5ZM204.547.602h19.485v4.403h-14.64v17.444h11.92v4.332h-11.92v18.146h14.64v4.404h-19.485V.6Zm-27.608 0h11.14c3.611 0 6.34 1.043 8.108 3.105 1.778 2.071 2.679 5.054 2.679 8.857v24.876c0 3.761-.901 6.719-2.679 8.79-1.768 2.062-4.497 3.106-8.108 3.106h-11.14V.6Zm-27.608 0h11.14c3.61 0 6.34 1.043 8.108 3.105 1.777 2.071 2.684 5.054 2.684 8.857v24.876c0 3.761-.902 6.719-2.679 8.79-1.768 2.062-4.498 3.106-8.108 3.106h-11.14V.6h-.005Zm-11.019 0h4.844v48.734h-4.844V.6Zm-28.445 0h4.845v22.198h12.586V.601h4.844v48.744h-4.844V27.136h-12.586v18.778a456.51 456.51 0 0 0-4.845 1.11V.6Zm16.836 42.773c-3.837.768-7.64 1.568-11.397 2.408V27.737h11.397v15.637ZM72.671 57.876v41.547h13.945v4.403h-18.79V59.469a421.066 421.066 0 0 1 4.845-1.593ZM18.567 81.474v11.02c0 2.317.504 4.144 1.491 5.437 1.007 1.318 2.528 1.985 4.523 1.985 3.988 0 6.013-2.494 6.013-7.416v-6.114h4.567v5.829c0 3.761-.901 6.754-2.684 8.897-1.767 2.128-4.472 3.207-8.032 3.207-3.561 0-6.2-1.079-7.968-3.207-1.782-2.142-2.684-5.136-2.684-8.897v-7.503a95.65 95.65 0 0 1 4.774-3.238Zm154.887 22.352V59.5h-8.995v-4.403h22.763V59.5h-8.994v43.033c-1.581.437-3.173.87-4.774 1.293Zm18.059-5.162V55.097h4.845v42.04a451.62 451.62 0 0 1-4.845 1.527Zm42.943-16.396V66.183l4.357 13.932c-1.4.718-2.856 1.436-4.357 2.153Zm4.901-2.428-4.911-15.693-.579.092v18.314l-.05.026c-1.38.657-2.8 1.308-4.236 1.96V55.097h6.391l7.197 22.723a202.604 202.604 0 0 1-3.812 2.02Zm8.42-4.657V55.097h4.215V72.53c-1.329.88-2.729 1.766-4.215 2.652Zm4.809-3.044V54.496h-5.403v21.038a127.347 127.347 0 0 1-3.485 1.99l-7.293-23.028h-7.418v30.307c-1.47.657-2.966 1.309-4.497 1.96V66.707c0-3.909-.987-7.034-2.931-9.29-1.959-2.264-4.845-3.415-8.592-3.415-3.747 0-6.622 1.15-8.556 3.416-1.924 2.255-2.896 5.38-2.896 9.284v25.513c0 1.11.091 2.153.247 3.135a385.368 385.368 0 0 1-4.815 1.594V54.495h-6.033v44.346a452.042 452.042 0 0 1-12.097 3.528V60.1h8.995v-5.604H163.86V60.1h8.994v43.883a527.713 527.713 0 0 1-31.818 7.31c-35.782 7.08-70.098 10.191-96.638 8.77-26.415-1.42-41.916-7.131-43.648-16.085-1.078-5.574 3.253-12.013 12.449-18.828v7.075c0 3.91.952 7.03 2.825 9.284 1.884 2.271 4.719 3.421 8.42 3.421 3.702 0 6.603-1.15 8.491-3.421 1.874-2.255 2.826-5.375 2.826-9.284v-6.43h-5.757v6.715c0 4.586-1.772 6.816-5.418 6.816-1.828 0-3.153-.57-4.054-1.751-.907-1.186-1.37-2.892-1.37-5.065V81.098c4.552-2.85 9.9-5.747 16.02-8.659 1.47-.697 2.976-1.395 4.512-2.082v21.858c0 3.909.987 7.034 2.931 9.289 1.954 2.266 4.82 3.416 8.521 3.416 3.702 0 6.633-1.15 8.592-3.416 1.944-2.255 2.93-5.38 2.93-9.29V66.703c0-1.929-.24-3.664-.72-5.207 1.738-.616 3.5-1.227 5.289-1.832v44.758h19.978v-5.604H73.27v-41.14c11.286-3.614 23.388-6.948 36.008-9.91l.594-.138c1.607-.376 3.224-.748 4.845-1.11.197-.045.398-.086.595-.132a571.409 571.409 0 0 1 11.396-2.407h.005v5.96h6.024v-7.126h.005c1.667-.316 3.323-.616 4.985-.916v8.032h6.034v-9.076c1.667-.28 3.329-.544 4.98-.81v9.891h11.73c3.792 0 6.667-1.114 8.556-3.308 1.873-2.184 2.825-5.274 2.825-9.183v-.494c1.511-.163 3.007-.316 4.497-.463v13.448h11.73c3.792 0 6.667-1.114 8.556-3.308 1.873-2.184 2.825-5.274 2.825-9.183v-2.566a347.26 347.26 0 0 1 4.498-.142V49.94h20.673v-5.61h-14.64v-9.69c.473 0 .952-.011 1.42-.011 4.573 0 8.979.112 13.185.336 1.5.081 2.961.178 4.391.285v14.685h5.474V35.75c2.78.3 5.404.656 7.862 1.069.221.035.438.076.66.117 3.313.58 6.32 1.262 9.014 2.046.197.056.398.112.594.173 9.282 2.8 14.676 6.826 15.658 11.896 1.193 6.185-4.276 13.438-15.663 21.089Z"/><path d="M51.146 99.916c4.04 0 6.084-2.494 6.084-7.416V66.428c0-1.146-.126-2.174-.368-3.075a8.422 8.422 0 0 0-.181-.57 6.318 6.318 0 0 0-.942-1.787c-1.007-1.318-2.553-1.985-4.593-1.985s-3.525.667-4.558 1.98c-1.012 1.293-1.526 3.126-1.526 5.437v26.077c0 2.362.514 4.205 1.532 5.472 1.027 1.288 2.558 1.94 4.552 1.94Zm-5.49-32.14v-1.353c0-2.174.474-3.88 1.4-5.065.928-1.181 2.262-1.751 4.09-1.751 1.828 0 3.233.59 4.125 1.75.352.464.64 1.009.856 1.63.065.183.126.376.176.575.222.835.333 1.792.333 2.866V92.5c0 4.586-1.798 6.816-5.49 6.816-1.828 0-3.168-.565-4.094-1.72-.927-1.161-1.4-2.877-1.4-5.096V67.777h.005ZM96.76 54.496h-6.033v49.93h19.978v-5.604H96.76V54.496Zm13.356 44.926v4.404h-18.79v-48.73h4.845v44.327h13.945ZM114.223 104.426h20.673v-5.604h-14.64V81.876h11.92v-5.533h-11.92V60.1h14.64v-5.604h-20.673v49.93Zm.594-49.33h19.485V59.5h-14.64v17.444h11.925v4.332h-11.92v18.147h14.64v4.403h-19.49v-48.73ZM150.152 54.002c-3.702 0-6.532 1.15-8.42 3.421-1.874 2.255-2.826 5.375-2.826 9.285V92.22c0 3.91.952 7.03 2.826 9.285 1.883 2.27 4.718 3.42 8.42 3.42 3.701 0 6.602-1.15 8.491-3.42 1.873-2.255 2.825-5.376 2.825-9.285V85.79h-5.751v6.714c0 4.586-1.773 6.816-5.419 6.816-1.828 0-3.153-.57-4.054-1.751-.907-1.186-1.365-2.891-1.365-5.065V66.433c0-2.179.458-3.884 1.365-5.065.891-1.16 2.251-1.751 4.054-1.751 3.646 0 5.419 2.23 5.419 6.816v5.019h5.751v-4.74c0-3.904-.952-7.029-2.825-9.284-1.894-2.275-4.749-3.426-8.491-3.426Zm10.717 16.844h-4.568v-4.423c0-4.923-2.024-7.417-6.013-7.417-1.994 0-3.515.667-4.523 1.985-.992 1.293-1.49 3.12-1.49 5.437V92.5c0 2.316.503 4.143 1.49 5.436 1.008 1.319 2.529 1.985 4.523 1.985 3.989 0 6.013-2.494 6.013-7.416v-6.113h4.568v5.828c0 3.762-.902 6.755-2.684 8.898-1.768 2.127-4.473 3.207-8.033 3.207-3.561 0-6.2-1.08-7.967-3.207-1.783-2.143-2.684-5.136-2.684-8.898V66.708c0-3.762.901-6.755 2.684-8.898 1.767-2.128 4.447-3.207 7.967-3.207 3.52 0 6.265 1.08 8.033 3.207 1.782 2.143 2.684 5.136 2.684 8.898v4.138ZM212.966 59.006c-1.989 0-3.525.667-4.557 1.98-1.013 1.293-1.526 3.125-1.526 5.436v26.073c0 .371.015.722.04 1.063.015.21.03.418.056.616.191-.066.382-.137.574-.203a328.258 328.258 0 0 0 10.898-4.093c.196-.076.398-.158.594-.234V66.417c0-2.31-.504-4.138-1.491-5.436-1.002-1.308-2.548-1.975-4.588-1.975Zm5.49 30.23a339.092 339.092 0 0 1-10.954 4.124c-.015-.28-.025-.565-.025-.86V66.427c0-2.173.468-3.878 1.4-5.064.927-1.181 2.261-1.751 4.089-1.751 1.829 0 3.234.59 4.125 1.75.907 1.187 1.365 2.892 1.365 5.065v22.81ZM166.48 37.653v-25.37c0-4.83-2.07-7.28-6.154-7.28h-6.154v39.924h6.225c4.039.005 6.083-2.444 6.083-7.274ZM154.771 5.605h5.56c3.742 0 5.56 2.183 5.56 6.678v24.754c-3.666.448-7.373.941-11.12 1.486V5.605Zm0 33.524a493.206 493.206 0 0 1 11.12-1.492v.01c0 4.495-1.798 6.679-5.489 6.679h-5.631v-5.197ZM194.09 37.653v-25.37c0-4.83-2.07-7.28-6.155-7.28h-6.154v39.924h6.225c4.034.005 6.084-2.444 6.084-7.274ZM182.376 5.605h5.559c3.742 0 5.56 2.183 5.56 6.678v22.265c-3.636.203-7.342.463-11.119.778V5.605Zm0 30.327c3.777-.32 7.483-.575 11.119-.779v2.5c0 4.494-1.798 6.678-5.489 6.678h-5.63v-8.399Z"/></g><defs><clipPath id="a"><path fill="#fff" d="M0 0h269v121H0z"/></clipPath></defs></svg>